<svg xmlns="http://www.w3.org/2000/svg" xmlns:xlink="http://www.w3.org/1999/xlink" zoomAndPan="magnify" preserveAspectRatio="xMidYMid meet" version="1.0" viewBox="17.89 25.77 224.29 26.44"><defs><g/><clipPath id="bfdf36cb90"><path d="M 28 28.285156 L 56.785156 28.285156 L 56.785156 52.214844 L 28 52.214844 Z M 28 28.285156 " clip-rule="nonzero"/></clipPath><clipPath id="d80c4183bd"><path d="M 17.898438 28.285156 L 41 28.285156 L 41 52 L 17.898438 52 Z M 17.898438 28.285156 " clip-rule="nonzero"/></clipPath></defs><g fill="#272727" fill-opacity="1"><g transform="translate(55.276328, 44.975363)"><g><path d="M 17.59375 -1.3125 L 17.578125 0 L 12.421875 0 L 8.921875 -6.5625 L 6.78125 -6.546875 L 6.78125 -1.65625 L 9.09375 -1.3125 L 9.0625 0 L 0.828125 0 L 0.671875 -0.828125 C 1.171875 -1.148438 1.898438 -1.5 2.859375 -1.875 L 2.859375 -15.40625 L 0.953125 -15.640625 L 0.984375 -16.953125 L 9.203125 -17.15625 C 11.171875 -17.15625 12.785156 -16.65625 14.046875 -15.65625 C 15.316406 -14.664062 15.953125 -13.421875 15.953125 -11.921875 C 15.953125 -10.910156 15.640625 -9.972656 15.015625 -9.109375 C 14.398438 -8.242188 13.5625 -7.585938 12.5 -7.140625 L 15.953125 -1.515625 Z M 6.78125 -8.703125 C 7.363281 -8.585938 7.921875 -8.53125 8.453125 -8.53125 C 9.671875 -8.53125 10.550781 -8.835938 11.09375 -9.453125 C 11.632812 -10.078125 11.90625 -10.878906 11.90625 -11.859375 C 11.90625 -13.367188 11.390625 -14.46875 10.359375 -15.15625 L 6.78125 -14.765625 Z M 6.78125 -8.703125 "/></g></g></g><g fill="#272727" fill-opacity="1"><g transform="translate(73.101139, 44.975363)"><g><path d="M 10.515625 -6.125 L 3.9375 -6.203125 C 4.007812 -4.929688 4.40625 -3.941406 5.125 -3.234375 C 5.84375 -2.535156 6.765625 -2.1875 7.890625 -2.1875 C 8.816406 -2.1875 9.914062 -2.5 11.1875 -3.125 L 11.71875 -1.75 L 7.671875 0.328125 L 6.859375 0.390625 C 4.960938 0.390625 3.40625 -0.203125 2.1875 -1.390625 C 0.96875 -2.585938 0.359375 -4.109375 0.359375 -5.953125 C 0.359375 -7.878906 0.976562 -9.5 2.21875 -10.8125 C 3.457031 -12.125 4.957031 -12.78125 6.71875 -12.78125 C 8.269531 -12.78125 9.535156 -12.300781 10.515625 -11.34375 C 11.503906 -10.394531 12 -9.15625 12 -7.625 Z M 5.828125 -10.828125 C 4.929688 -10.304688 4.351562 -9.359375 4.09375 -7.984375 L 8.546875 -8.21875 C 8.429688 -8.957031 8.117188 -9.578125 7.609375 -10.078125 C 7.109375 -10.578125 6.515625 -10.828125 5.828125 -10.828125 Z M 5.828125 -10.828125 "/></g></g></g><g fill="#272727" fill-opacity="1"><g transform="translate(85.568199, 44.975363)"><g><path d="M 14.65625 -1.234375 L 11.484375 0.40625 C 11.054688 0.394531 10.609375 0.1875 10.140625 -0.21875 C 9.671875 -0.625 9.3125 -1.109375 9.0625 -1.671875 L 6.15625 0.40625 C 4.488281 0.425781 3.101562 -0.175781 2 -1.40625 C 0.90625 -2.632812 0.359375 -4.175781 0.359375 -6.03125 C 0.359375 -7.96875 0.992188 -9.570312 2.265625 -10.84375 C 3.535156 -12.113281 5.148438 -12.75 7.109375 -12.75 C 7.660156 -12.75 8.210938 -12.679688 8.765625 -12.546875 L 8.765625 -16.625 L 6.828125 -16.828125 L 6.640625 -18.0625 C 8.117188 -18.625 9.648438 -18.925781 11.234375 -18.96875 L 12.5 -17.796875 L 12.5 -2.9375 C 12.5 -2.46875 12.710938 -2.234375 13.140625 -2.234375 L 14.421875 -2.390625 Z M 4.28125 -6.421875 C 4.28125 -5.285156 4.53125 -4.34375 5.03125 -3.59375 C 5.539062 -2.84375 6.242188 -2.46875 7.140625 -2.46875 C 7.597656 -2.46875 8.140625 -2.597656 8.765625 -2.859375 L 8.765625 -10 C 7.941406 -10.40625 7.125 -10.609375 6.3125 -10.609375 L 5.84375 -10.59375 C 4.800781 -9.613281 4.28125 -8.222656 4.28125 -6.421875 Z M 4.28125 -6.421875 "/></g></g></g><g fill="#272727" fill-opacity="1"><g transform="translate(100.379272, 44.975363)"><g><path d="M 14.65625 -1.234375 L 11.484375 0.40625 C 11.054688 0.394531 10.609375 0.1875 10.140625 -0.21875 C 9.671875 -0.625 9.3125 -1.109375 9.0625 -1.671875 L 6.15625 0.40625 C 4.488281 0.425781 3.101562 -0.175781 2 -1.40625 C 0.90625 -2.632812 0.359375 -4.175781 0.359375 -6.03125 C 0.359375 -7.96875 0.992188 -9.570312 2.265625 -10.84375 C 3.535156 -12.113281 5.148438 -12.75 7.109375 -12.75 C 7.660156 -12.75 8.210938 -12.679688 8.765625 -12.546875 L 8.765625 -16.625 L 6.828125 -16.828125 L 6.640625 -18.0625 C 8.117188 -18.625 9.648438 -18.925781 11.234375 -18.96875 L 12.5 -17.796875 L 12.5 -2.9375 C 12.5 -2.46875 12.710938 -2.234375 13.140625 -2.234375 L 14.421875 -2.390625 Z M 4.28125 -6.421875 C 4.28125 -5.285156 4.53125 -4.34375 5.03125 -3.59375 C 5.539062 -2.84375 6.242188 -2.46875 7.140625 -2.46875 C 7.597656 -2.46875 8.140625 -2.597656 8.765625 -2.859375 L 8.765625 -10 C 7.941406 -10.40625 7.125 -10.609375 6.3125 -10.609375 L 5.84375 -10.59375 C 4.800781 -9.613281 4.28125 -8.222656 4.28125 -6.421875 Z M 4.28125 -6.421875 "/></g></g></g><g fill="#272727" fill-opacity="1"><g transform="translate(115.190346, 44.975363)"><g><path d="M 4.40625 -14.375 C 3.320312 -14.851562 2.421875 -15.550781 1.703125 -16.46875 C 2.265625 -17.601562 3.003906 -18.515625 3.921875 -19.203125 C 4.953125 -18.648438 5.816406 -17.890625 6.515625 -16.921875 C 6.035156 -15.890625 5.332031 -15.039062 4.40625 -14.375 Z M 6.078125 -2.03125 C 6.890625 -1.78125 7.519531 -1.523438 7.96875 -1.265625 L 7.859375 0 L 0.46875 0 L 0.390625 -0.875 C 0.898438 -1.164062 1.550781 -1.445312 2.34375 -1.71875 L 2.34375 -10.359375 L 0.40625 -10.59375 L 0.234375 -11.828125 C 1.710938 -12.390625 3.238281 -12.691406 4.8125 -12.734375 L 6.078125 -11.59375 Z M 6.078125 -2.03125 "/></g></g></g><g fill="#272727" fill-opacity="1"><g transform="translate(123.561824, 44.975363)"><g><path d="M 13.90625 -2.015625 C 14.75 -1.753906 15.363281 -1.503906 15.75 -1.265625 L 15.640625 0 L 8.84375 0 L 8.765625 -0.875 L 10.171875 -1.515625 L 10.171875 -7.453125 C 10.171875 -9.128906 9.613281 -9.96875 8.5 -9.96875 C 7.96875 -9.96875 7.160156 -9.664062 6.078125 -9.0625 L 6.078125 -1.953125 C 6.679688 -1.765625 7.207031 -1.535156 7.65625 -1.265625 L 7.546875 0 L 0.546875 0 L 0.46875 -0.875 C 0.925781 -1.132812 1.550781 -1.410156 2.34375 -1.703125 L 2.34375 -10.359375 L 0.40625 -10.59375 L 0.234375 -11.828125 C 1.710938 -12.390625 3.238281 -12.691406 4.8125 -12.734375 L 6.078125 -11.484375 L 6.078125 -10.3125 C 7.816406 -11.582031 9.269531 -12.363281 10.4375 -12.65625 C 11.226562 -12.601562 11.96875 -12.332031 12.65625 -11.84375 C 13.34375 -11.363281 13.738281 -10.75 13.84375 -10 L 13.90625 -8.53125 Z M 13.90625 -2.015625 "/></g></g></g><g fill="#272727" fill-opacity="1"><g transform="translate(139.609306, 44.975363)"><g><path d="M 14.328125 -10.96875 L 13.765625 -11 C 13.078125 -11 12.445312 -10.890625 11.875 -10.671875 C 12.351562 -9.992188 12.59375 -9.242188 12.59375 -8.421875 C 12.59375 -7.117188 12.03125 -6.054688 10.90625 -5.234375 C 9.78125 -4.410156 8.382812 -4 6.71875 -4 L 5.84375 -4.046875 L 4.515625 -2.890625 C 5.867188 -2.867188 7.367188 -2.707031 9.015625 -2.40625 C 10.660156 -2.101562 12.113281 -1.75 13.375 -1.34375 C 13.539062 -0.84375 13.625 -0.332031 13.625 0.1875 C 13.625 1.8125 12.851562 3.222656 11.3125 4.421875 C 9.769531 5.628906 7.957031 6.234375 5.875 6.234375 C 4.425781 6.234375 3.175781 5.910156 2.125 5.265625 C 1.082031 4.617188 0.546875 3.65625 0.515625 2.375 L 3.34375 -0.1875 L 1.71875 -0.28125 L 1.21875 -1.9375 C 2.101562 -2.914062 3.0625 -3.738281 4.09375 -4.40625 C 3.113281 -4.75 2.335938 -5.273438 1.765625 -5.984375 C 1.203125 -6.703125 0.921875 -7.507812 0.921875 -8.40625 C 0.921875 -9.6875 1.484375 -10.753906 2.609375 -11.609375 C 3.734375 -12.472656 5.128906 -12.90625 6.796875 -12.90625 C 8.191406 -12.90625 9.390625 -12.601562 10.390625 -12 C 10.972656 -13.394531 12.070312 -14.160156 13.6875 -14.296875 Z M 7.9375 -5.84375 C 8.59375 -6.320312 8.921875 -7.101562 8.921875 -8.1875 C 8.921875 -8.96875 8.6875 -9.648438 8.21875 -10.234375 C 7.757812 -10.816406 7.164062 -11.109375 6.4375 -11.109375 C 6.082031 -11.109375 5.707031 -11.019531 5.3125 -10.84375 C 4.832031 -10.363281 4.59375 -9.582031 4.59375 -8.5 C 4.59375 -7.675781 4.796875 -7 5.203125 -6.46875 C 5.617188 -5.9375 6.1875 -5.671875 6.90625 -5.671875 C 7.175781 -5.671875 7.519531 -5.726562 7.9375 -5.84375 Z M 6.390625 3.34375 C 7.316406 3.34375 8.222656 3.171875 9.109375 2.828125 C 10.003906 2.484375 10.660156 2.003906 11.078125 1.390625 C 9.535156 0.734375 7.472656 0.257812 4.890625 -0.03125 C 3.960938 0.675781 3.5 1.304688 3.5 1.859375 C 3.5 2.316406 3.769531 2.675781 4.3125 2.9375 C 4.851562 3.207031 5.546875 3.34375 6.390625 3.34375 Z M 6.390625 3.34375 "/></g></g></g><g fill="#17a34a" fill-opacity="1"><g transform="translate(154.264022, 44.975363)"><g><path d="M 23.90625 -1.21875 L 23.890625 0 L 15.6875 0 L 15.53125 -0.828125 C 16.03125 -1.148438 16.765625 -1.5 17.734375 -1.875 L 17.65625 -8.8125 L 18.015625 -13.21875 L 13.25 -0.40625 L 10.28125 0.1875 L 5.484375 -13.09375 L 5.90625 -8.8125 L 5.765625 -1.65625 L 7.9375 -1.21875 L 7.90625 0 L 0.796875 0 L 0.640625 -0.828125 C 1.210938 -1.171875 1.976562 -1.539062 2.9375 -1.9375 L 3.296875 -15.09375 L 1.1875 -15.53125 L 1.21875 -16.75 L 8.015625 -16.75 L 7.984375 -16.71875 L 12.546875 -4.015625 L 17.21875 -16.75 L 23.21875 -16.75 L 23.375 -15.921875 C 22.820312 -15.578125 22.113281 -15.234375 21.25 -14.890625 L 21.484375 -1.703125 Z M 23.90625 -1.21875 "/></g></g></g><g fill="#17a34a" fill-opacity="1"><g transform="translate(178.837527, 44.975363)"><g><path d="M 15.609375 -1.234375 L 12.4375 0.40625 C 12.007812 0.394531 11.554688 0.179688 11.078125 -0.234375 C 10.597656 -0.660156 10.242188 -1.15625 10.015625 -1.71875 C 8.492188 -0.65625 7.023438 0.0507812 5.609375 0.40625 C 5.078125 0.375 4.515625 0.195312 3.921875 -0.125 C 3.335938 -0.457031 2.863281 -0.890625 2.5 -1.421875 C 2.257812 -1.773438 2.128906 -2.570312 2.109375 -3.8125 L 2.109375 -10.359375 L 0.1875 -10.59375 L 0 -11.828125 C 1.476562 -12.390625 3.007812 -12.691406 4.59375 -12.734375 L 5.84375 -11.59375 L 5.84375 -4.53125 C 5.84375 -3.039062 6.394531 -2.296875 7.5 -2.296875 C 8.113281 -2.296875 8.851562 -2.507812 9.71875 -2.9375 L 9.71875 -10.390625 L 8.09375 -10.640625 L 7.90625 -11.875 C 9.175781 -12.375 10.601562 -12.660156 12.1875 -12.734375 L 13.453125 -11.59375 L 13.453125 -2.9375 C 13.453125 -2.46875 13.664062 -2.234375 14.09375 -2.234375 L 15.375 -2.390625 Z M 15.609375 -1.234375 "/></g></g></g><g fill="#17a34a" fill-opacity="1"><g transform="translate(194.601661, 44.975363)"><g><path d="M 6.78125 -2.5 C 7.257812 -2.5 7.976562 -2.609375 8.9375 -2.828125 L 9.21875 -1.578125 L 5.25 0.40625 C 4.507812 0.445312 3.804688 0.203125 3.140625 -0.328125 C 2.472656 -0.867188 2.128906 -1.472656 2.109375 -2.140625 L 2.109375 -9.578125 L 0.3125 -9.5625 L 0.203125 -10.90625 C 0.859375 -11.363281 1.554688 -11.773438 2.296875 -12.140625 L 3.578125 -15.484375 L 5.328125 -15.484375 L 5.765625 -12.140625 L 9.296875 -12.140625 L 9.359375 -11.03125 L 8.09375 -9.53125 L 5.84375 -9.53125 L 5.84375 -3.6875 C 5.84375 -3.238281 5.910156 -2.925781 6.046875 -2.75 C 6.191406 -2.582031 6.4375 -2.5 6.78125 -2.5 Z M 6.78125 -2.5 "/></g></g></g><g fill="#17a34a" fill-opacity="1"><g transform="translate(204.441371, 44.975363)"><g><path d="M 15.609375 -1.234375 L 12.4375 0.40625 C 12.007812 0.394531 11.554688 0.179688 11.078125 -0.234375 C 10.597656 -0.660156 10.242188 -1.15625 10.015625 -1.71875 C 8.492188 -0.65625 7.023438 0.0507812 5.609375 0.40625 C 5.078125 0.375 4.515625 0.195312 3.921875 -0.125 C 3.335938 -0.457031 2.863281 -0.890625 2.5 -1.421875 C 2.257812 -1.773438 2.128906 -2.570312 2.109375 -3.8125 L 2.109375 -10.359375 L 0.1875 -10.59375 L 0 -11.828125 C 1.476562 -12.390625 3.007812 -12.691406 4.59375 -12.734375 L 5.84375 -11.59375 L 5.84375 -4.53125 C 5.84375 -3.039062 6.394531 -2.296875 7.5 -2.296875 C 8.113281 -2.296875 8.851562 -2.507812 9.71875 -2.9375 L 9.71875 -10.390625 L 8.09375 -10.640625 L 7.90625 -11.875 C 9.175781 -12.375 10.601562 -12.660156 12.1875 -12.734375 L 13.453125 -11.59375 L 13.453125 -2.9375 C 13.453125 -2.46875 13.664062 -2.234375 14.09375 -2.234375 L 15.375 -2.390625 Z M 15.609375 -1.234375 "/></g></g></g><g fill="#17a34a" fill-opacity="1"><g transform="translate(220.205505, 44.975363)"><g><path d="M 13.78125 -1.234375 L 10.640625 0.40625 C 10.222656 0.394531 9.789062 0.210938 9.34375 -0.140625 C 8.90625 -0.492188 8.554688 -0.925781 8.296875 -1.4375 L 5.484375 0.328125 L 4.6875 0.390625 C 3.601562 0.390625 2.707031 0.0703125 2 -0.5625 C 1.300781 -1.195312 0.953125 -1.960938 0.953125 -2.859375 C 0.953125 -4.097656 1.625 -5.078125 2.96875 -5.796875 L 7.890625 -5.921875 L 7.890625 -8.21875 C 7.890625 -9.59375 7.484375 -10.46875 6.671875 -10.84375 C 5.878906 -10.789062 5.234375 -10.679688 4.734375 -10.515625 L 4.28125 -7.734375 L 2.109375 -7.65625 C 1.734375 -8.59375 1.546875 -9.628906 1.546875 -10.765625 L 1.578125 -11.28125 C 2.515625 -11.695312 3.644531 -12.0625 4.96875 -12.375 C 6.289062 -12.695312 7.296875 -12.859375 7.984375 -12.859375 C 8.617188 -12.859375 9.238281 -12.6875 9.84375 -12.34375 C 10.457031 -12 10.957031 -11.550781 11.34375 -11 C 11.53125 -10.675781 11.628906 -10.023438 11.640625 -9.046875 L 11.640625 -2.859375 C 11.640625 -2.441406 11.859375 -2.234375 12.296875 -2.234375 L 13.546875 -2.390625 Z M 5.234375 -1.90625 C 5.921875 -1.925781 6.804688 -2.140625 7.890625 -2.546875 L 7.890625 -4.40625 L 7.234375 -4.4375 C 5.535156 -4.4375 4.6875 -3.972656 4.6875 -3.046875 C 4.6875 -2.578125 4.867188 -2.195312 5.234375 -1.90625 Z M 5.234375 -1.90625 "/></g></g></g><g fill="#17a34a" fill-opacity="1"><g transform="translate(234.218073, 44.975363)"><g><path d="M 6.078125 -2.03125 C 6.890625 -1.78125 7.519531 -1.523438 7.96875 -1.265625 L 7.859375 0 L 0.46875 0 L 0.390625 -0.875 C 0.898438 -1.164062 1.550781 -1.445312 2.34375 -1.71875 L 2.34375 -16.625 L 0.40625 -16.828125 L 0.234375 -18.0625 C 1.710938 -18.625 3.238281 -18.925781 4.8125 -18.96875 L 6.078125 -17.828125 Z M 6.078125 -2.03125 "/></g></g></g><g clip-path="url(#bfdf36cb90)"><path fill="#17a34a" d="M 45.457031 36.960938 C 44.347656 34.585938 42.695312 32.113281 40.496094 29.542969 C 33.800781 30.734375 29.742188 31.496094 28.324219 31.832031 C 35.003906 40.835938 39.171875 47.621094 40.835938 52.183594 C 45.027344 48.96875 47.640625 47 48.667969 46.273438 L 47.710938 43.039062 C 49.242188 39.152344 52.265625 34.390625 56.785156 28.761719 C 52.484375 33.410156 47.636719 39.25 42.246094 46.269531 C 39.886719 42.328125 37.203125 39.09375 34.1875 36.570312 C 36.210938 36.914062 38.839844 38.121094 42.078125 40.191406 L 45.457031 36.957031 Z M 45.457031 36.960938 " fill-opacity="1" fill-rule="evenodd"/></g><g clip-path="url(#d80c4183bd)"><path fill="#272727" d="M 36.609375 51.738281 C 31.5625 45.140625 25.929688 40.085938 19.699219 36.570312 C 22.207031 35.503906 24.5 34.871094 26.574219 34.675781 C 30.117188 38.4375 34.339844 44.074219 39.25 51.582031 C 38.21875 49.085938 36.769531 46.582031 35.382812 44.324219 C 32.902344 40.289062 30.128906 36.375 27.304688 32.570312 L 26.179688 31.050781 L 28.03125 30.617188 C 29.398438 30.292969 30.816406 30.042969 32.195312 29.78125 C 34.882812 29.277344 37.570312 28.796875 40.257812 28.316406 L 17.894531 28.316406 L 17.894531 44.070312 C 25.09375 46.742188 30.664062 49.382812 34.605469 51.988281 C 30.816406 48.492188 25.949219 45.480469 20.007812 42.957031 L 23.503906 41.449219 C 29.140625 45.121094 33.507812 48.550781 36.605469 51.738281 Z M 36.609375 51.738281 " fill-opacity="1" fill-rule="evenodd"/></g></svg>